<?xml version="1.0" standalone="no"?>
<!DOCTYPE svg PUBLIC "-//W3C//DTD SVG 20010904//EN"
 "http://www.w3.org/TR/2001/REC-SVG-20010904/DTD/svg10.dtd">
<svg version="1.0" xmlns="http://www.w3.org/2000/svg"
 width="2000.000000pt" height="2000.000000pt" viewBox="0 0 2000.000000 2000.000000"
 preserveAspectRatio="xMidYMid meet">
<metadata>
Created by potrace 1.15, written by Peter Selinger 2001-2017
</metadata>
<g transform="translate(0.000000,2000.000000) scale(0.100000,-0.100000)"
fill="#000000" stroke="none">
<path d="M7800 19354 c0 -1 23 -62 51 -136 28 -73 60 -160 70 -193 11 -33 35
-103 53 -155 155 -440 336 -1188 391 -1615 9 -66 22 -163 30 -215 46 -310 75
-780 75 -1220 0 -307 -22 -787 -45 -985 -66 -570 -159 -1071 -277 -1495 -22
-80 -49 -176 -59 -215 -26 -97 -160 -502 -209 -632 -96 -253 -141 -359 -260
-628 -54 -120 -225 -472 -236 -484 -2 -2 -14 9 -26 25 -13 16 -77 92 -143 169
-209 244 -419 451 -741 732 -165 144 -495 383 -769 558 -123 79 -376 219 -560
309 -389 192 -781 340 -1195 450 -192 52 -481 118 -487 112 -2 -1 16 -45 38
-97 100 -226 206 -538 245 -714 89 -409 108 -577 108 -970 0 -366 -28 -644
-89 -885 -8 -31 -17 -73 -21 -95 -8 -52 -64 -240 -115 -385 -23 -63 -45 -135
-51 -160 -69 -313 -88 -405 -94 -474 -3 -33 -12 -101 -19 -151 -51 -323 -69
-616 -62 -1029 5 -340 18 -506 57 -771 10 -72 22 -158 25 -190 3 -33 21 -132
41 -220 19 -88 39 -185 44 -216 6 -31 28 -119 49 -195 21 -76 42 -154 46 -172
7 -35 113 -350 163 -487 39 -106 96 -245 133 -323 16 -35 29 -66 29 -70 0 -10
200 -411 225 -452 12 -19 39 -66 60 -105 60 -110 234 -385 326 -515 129 -182
212 -290 222 -290 7 0 151 139 322 310 l309 309 -33 47 c-441 626 -767 1315
-974 2059 -81 293 -118 463 -167 780 -49 321 -53 371 -53 620 0 248 9 337 58
635 13 80 26 165 30 190 15 117 77 358 134 520 57 165 106 351 141 533 63 332
63 331 69 1011 l6 628 125 -62 c362 -182 806 -463 1090 -689 95 -76 288 -237
341 -286 85 -76 352 -385 455 -525 179 -243 292 -410 424 -625 121 -195 171
-288 231 -425 41 -96 85 -193 96 -214 l20 -39 185 309 c221 368 465 842 606
1174 55 129 151 354 214 500 196 449 306 747 431 1165 77 258 193 729 218 885
6 36 25 148 44 250 18 102 38 228 44 280 6 52 20 174 31 270 42 364 50 551 56
1185 10 975 -15 1480 -102 2059 -8 54 -13 101 -11 102 2 2 42 -22 88 -54 295
-201 654 -496 793 -650 854 -953 1432 -2179 1615 -3429 66 -450 73 -555 72
-1128 -1 -486 -6 -577 -36 -755 -8 -47 -33 -195 -55 -330 -23 -135 -43 -258
-47 -274 -5 -24 -3 -27 13 -23 11 3 69 9 129 12 232 15 772 128 1070 225 167
54 305 122 485 238 173 112 282 204 534 452 255 250 411 417 493 527 31 40 58
73 62 73 10 0 213 -277 320 -438 218 -326 477 -820 622 -1187 54 -135 139
-369 155 -427 7 -26 31 -103 53 -172 23 -69 41 -131 41 -138 0 -7 18 -83 39
-168 67 -261 113 -518 146 -810 42 -378 42 -375 5 -720 -27 -246 -35 -303 -76
-515 -80 -417 -194 -811 -340 -1181 -24 -62 -44 -114 -44 -117 0 -3 -18 -45
-40 -92 -22 -47 -40 -88 -40 -91 0 -3 -44 -96 -99 -207 -88 -181 -257 -489
-309 -564 -10 -15 -56 -86 -102 -158 -45 -71 -102 -156 -127 -188 l-46 -59
314 -314 c172 -173 316 -314 319 -313 12 1 162 206 286 389 196 291 315 494
460 790 120 244 184 388 234 525 69 189 151 423 154 442 3 12 20 72 39 135 20
62 40 131 45 153 163 675 207 1035 207 1705 0 601 -40 977 -156 1475 -22 94
-42 184 -45 200 -3 17 -19 75 -36 130 -17 55 -39 129 -48 165 -93 349 -382
1006 -619 1409 -364 619 -842 1195 -1375 1656 -199 172 -285 239 -290 223 -2
-7 -9 -49 -16 -92 -17 -115 -84 -353 -137 -486 -126 -320 -308 -602 -547 -848
-139 -143 -275 -256 -431 -357 -107 -70 -300 -177 -340 -189 -20 -6 -20 -2
-17 502 4 545 -3 715 -44 1077 -27 244 -31 272 -75 495 -280 1449 -1034 2763
-2142 3738 -630 554 -1342 973 -2137 1260 -124 44 -340 112 -340 106z"/>
<path d="M6771 5582 l-285 -286 105 -100 c614 -588 1404 -1018 2239 -1220 230
-56 414 -87 723 -121 l57 -6 -2 408 -3 408 -103 12 c-445 52 -906 190 -1327
398 -366 180 -678 395 -992 683 -67 62 -123 112 -125 111 -2 0 -131 -129 -287
-287z"/>
<path d="M12825 5748 c-640 -588 -1437 -961 -2280 -1067 -49 -7 -105 -14 -122
-17 l-33 -5 0 -405 0 -406 63 7 c283 29 496 65 727 121 835 201 1625 632 2235
1217 l100 96 -285 285 -285 284 -120 -110z"/>
<path d="M5643 4455 c-156 -157 -283 -288 -283 -293 0 -10 144 -151 270 -263
1044 -931 2338 -1496 3739 -1634 85 -8 173 -15 197 -15 l44 0 0 403 0 402
-209 23 c-924 100 -1778 405 -2545 909 -292 192 -574 415 -801 635 -67 65
-124 118 -126 117 -2 0 -131 -128 -286 -284z"/>
<path d="M13949 4616 c-218 -212 -504 -438 -795 -629 -759 -499 -1604 -803
-2519 -907 -99 -11 -195 -20 -212 -20 l-33 0 0 -405 0 -405 44 0 c24 0 112 7
197 15 1200 118 2326 550 3279 1260 228 170 535 431 680 579 l55 56 -285 285
c-157 157 -287 285 -290 285 -3 -1 -57 -52 -121 -114z"/>
<path d="M4513 3323 c-156 -155 -283 -287 -283 -291 0 -11 215 -221 335 -328
751 -668 1617 -1191 2560 -1549 736 -278 1575 -457 2358 -503 l127 -7 0 406 0
406 -117 7 c-65 3 -197 15 -294 26 -885 98 -1710 343 -2504 745 -661 334
-1205 719 -1782 1261 l-118 111 -282 -284z"/>
<path d="M15060 3463 c-541 -510 -1095 -899 -1745 -1228 -880 -445 -1845 -711
-2810 -773 l-110 -7 -3 -405 -2 -405 127 7 c897 52 1779 259 2658 623 205 84
674 316 879 434 602 347 1247 836 1661 1260 l60 61 -285 285 -285 284 -145
-136z"/>
</g>
</svg>
